<svg width="70" height="70" viewBox="0 0 70 70" fill="none" xmlns="http://www.w3.org/2000/svg">
<path d="M50.3985 36.4231C54.0815 34.3078 57.7545 32.1753 61.45 30.0818C64.9577 28.0945 69.0847 29.9273 69.8798 33.7948C70.34 36.0321 69.3412 38.449 67.3213 39.6262C60.6992 43.4852 54.0675 47.3289 47.4027 51.1138C45.3399 52.2852 43.215 52.0697 41.3352 50.6342C39.4255 49.1768 38.8236 47.1665 39.2715 44.8267C39.7829 43.0455 40.9532 41.8547 42.5492 40.9638C45.1882 39.4911 47.7842 37.9407 50.3985 36.4231Z" fill="#FABC05" fill-opacity="0.5"/>
<path d="M53.1025 34.8849C49.4289 32.7531 45.7459 30.6381 42.0851 28.4848C38.61 26.4406 38.1342 21.9502 41.0857 19.3274C42.7931 17.8106 45.3855 17.4669 47.415 18.6276C54.0683 22.4331 60.7128 26.2546 67.3229 30.1339C69.3687 31.3345 70.2443 33.2828 69.9416 35.6286C69.634 38.0108 68.1941 39.5371 65.9439 40.3194C64.1455 40.7673 62.5292 40.349 60.9597 39.4122C58.3645 37.8631 55.7239 36.3899 53.1025 34.8849Z" fill="#109D58" fill-opacity="0.5"/>
<path d="M19.6196 33.3766C17.2623 34.7159 14.9037 36.0527 12.5488 37.3961C11.1712 38.182 9.80897 38.9946 8.42428 39.7673C5.6344 41.3246 2.31979 40.4118 0.737956 37.669C-0.771693 35.0516 0.0959246 31.6583 2.78272 30.0898C9.35206 26.2554 15.9383 22.4489 22.5484 18.685C24.5757 17.5306 26.679 17.6758 28.5537 19.0558C30.5323 20.5124 31.18 22.5621 30.7357 24.9651C30.4601 25.5464 30.2955 26.2281 29.8828 26.6861C29.2116 27.4312 28.4487 28.1446 27.5994 28.6685C24.9711 30.2892 22.284 31.8144 19.6196 33.3766Z" fill="#E94436" fill-opacity="0.5"/>
<path d="M16.9168 34.8789C19.2555 36.2504 21.5926 37.625 23.9335 38.9928C25.3026 39.7928 26.6875 40.5664 28.049 41.3788C30.7926 43.0167 31.6597 46.3433 30.0751 49.0845C28.563 51.7008 25.1907 52.6463 22.4889 51.1033C15.8835 47.3312 9.29388 43.531 2.7292 39.6884C0.715875 38.5099 -0.209985 36.6158 0.0478669 34.3022C0.319937 31.8601 1.77107 30.2745 4.07423 29.4577C4.71545 29.406 5.3881 29.2075 5.9913 29.336C6.97212 29.5449 7.97154 29.8487 8.84982 30.3223C11.5675 31.7879 14.2319 33.3526 16.9168 34.8789Z" fill="#4385F3" fill-opacity="0.5"/>
</svg>
