<svg width="70" height="70" viewBox="0 0 70 70" fill="none" xmlns="http://www.w3.org/2000/svg">
<path d="M35.1087 18.4639C49.5202 7.27578 42.1238 0 42.1238 0C43.2246 11.5661 30.2159 14.2971 26.7288 22.2451C24.3495 27.6686 28.3583 32.4172 35.1039 38.4024C34.5076 37.0768 33.5877 35.7888 32.6567 34.4848C29.4807 30.0372 26.1723 25.4039 35.1087 18.4639Z" fill="white" fill-opacity="0.5"/>
<path d="M37.4095 40.8559C37.4095 40.8559 41.7452 37.3579 38.3117 33.4705C26.6724 20.2822 51.0416 14.2971 51.0416 14.2971C36.1631 21.4648 38.3843 25.7193 42.124 30.8879C46.128 36.4302 37.4095 40.8559 37.4095 40.8559Z" fill="white" fill-opacity="0.5"/>
<path d="M50.1747 51.2873C63.53 44.4627 57.3552 37.9046 53.0451 38.7881C51.9886 39.0043 51.5176 39.1917 51.5176 39.1917C51.5176 39.1917 51.9098 38.5875 52.6588 38.3259C61.1855 35.3783 67.7429 47.0201 49.9063 51.6312C49.9063 51.6312 50.113 51.4496 50.1747 51.2873Z" fill="white" fill-opacity="0.5"/>
<path d="M22.3847 42.6495C14.0287 41.5522 26.9664 38.5304 26.9664 38.5304C26.9664 38.5304 21.9422 38.1973 15.763 41.1344C8.45638 44.6102 33.8365 46.1908 46.9744 42.793C48.3403 41.8758 50.2281 41.0808 50.2281 41.0808C50.2281 41.0808 44.8519 42.025 39.4977 42.4692C32.9464 43.0089 25.9129 43.1141 22.3847 42.6495Z" fill="white" fill-opacity="0.5"/>
<path d="M25.564 49.1658C20.9043 48.692 23.9553 46.471 23.9553 46.471C11.8978 50.4063 30.6639 54.869 47.5123 50.0242C45.7214 49.4034 44.5826 48.2678 44.5826 48.2678C36.3482 49.8271 31.5897 49.7772 25.564 49.1658Z" fill="white" fill-opacity="0.5"/>
<path d="M27.5942 56.2168C22.9381 55.6905 25.6583 54.1349 25.6583 54.1349C14.713 57.1423 32.3157 63.3555 46.251 57.4825C43.9685 56.6097 42.3342 55.6021 42.3342 55.6021C36.118 56.7589 33.2349 56.8496 27.5942 56.2168Z" fill="white" fill-opacity="0.5"/>
<path d="M56.7409 59.8036C56.7409 59.8036 58.7538 61.4346 54.5239 62.6964C46.4802 65.0926 21.0458 65.8162 13.9802 62.792C11.4403 61.7054 16.2033 60.1976 17.7016 59.8811C19.2641 59.5479 20.1571 59.61 20.1571 59.61C17.3324 57.6533 1.89982 63.4521 12.3181 65.1129C40.7302 69.6439 64.1106 63.0724 56.7409 59.8036Z" fill="white" fill-opacity="0.5"/>
<path d="M61.25 63.3673C60.7839 69.3322 41.0981 70.5869 28.2787 69.78C19.9157 69.2526 18.2396 67.9346 18.2151 67.9153C26.2192 69.213 39.7138 69.4492 50.6555 67.4242C60.3538 65.6285 61.25 63.3673 61.25 63.3673Z" fill="white" fill-opacity="0.5"/>
</svg>
