<svg width="60" height="60" viewBox="0 0 60 60" fill="none" xmlns="http://www.w3.org/2000/svg">
<g clip-path="url(#clip0_29_546)">
<path d="M54.555 3.12C53.71 5.135 52.64 7.045 51.3525 8.8C45.7058 3.16379 38.0532 -0.00119513 30.075 3.38537e-07C13.5775 3.38537e-07 0 13.575 0 30.0775C0 38.31 3.375 46.19 9.3425 51.87L10.4525 52.8525C15.8761 57.4189 22.7375 59.9244 29.8275 59.9275C45.515 59.9275 58.7025 47.65 59.82 31.9975C60.64 24.335 58.39 14.6425 54.555 3.12ZM13.6175 52.0425C13.1325 52.6425 12.3925 52.9925 11.6175 52.9925C10.936 52.9892 10.2835 52.7167 9.80211 52.2344C9.32071 51.752 9.04947 51.099 9.0475 50.4175C9.0475 49.0075 10.21 47.8425 11.6175 47.8425C12.1037 47.844 12.5796 47.9829 12.9903 48.2431C13.401 48.5033 13.7299 48.8743 13.9389 49.3133C14.1479 49.7522 14.2287 50.2414 14.1718 50.7242C14.115 51.2071 13.9228 51.6641 13.6175 52.0425ZM54.43 43.0375C47.0075 52.9225 31.155 49.5925 20.9925 50.0675C20.9925 50.0675 19.1875 50.1775 17.375 50.4725C17.375 50.4725 18.055 50.185 18.9375 49.8475C26.07 47.3675 29.445 46.885 33.78 44.66C41.945 40.51 50.015 31.4275 51.695 21.98C48.585 31.07 39.165 38.88 30.5775 42.055C24.695 44.2225 14.07 46.33 14.07 46.33L13.64 46.105C6.405 42.585 6.1875 26.925 19.335 21.87C25.0925 19.655 30.6025 20.87 36.82 19.39C43.46 17.815 51.14 12.835 54.265 6.3425C57.765 16.7275 61.9775 32.9875 54.43 43.0375Z" fill="white" fill-opacity="0.5"/>
</g>
<defs>
<clipPath id="clip0_29_546">
<rect width="60" height="60" fill="white"/>
</clipPath>
</defs>
</svg>
