<svg width="60" height="60" viewBox="0 0 60 60" fill="none" xmlns="http://www.w3.org/2000/svg">
<g clip-path="url(#clip0_29_548)">
<path d="M10.2625 10.2625C10.2625 10.2625 22.895 3.95002 29.21 0.790015C30.3594 0.22342 31.632 -0.0472645 32.9125 0.00251509C34.8275 0.120015 37.105 1.97252 37.105 1.97252L60 24.87V49.3425H49.3425V60H24.4725L1.9725 37.5C0.7575 36.25 0 34.4875 0 32.7625C0 31.965 0.45 30.7175 0.79 30L10.2625 10.2625ZM11.96 11.96V41.4275C11.965 42.785 12.0125 43.9875 13.205 45.1975L25.51 57.5H46.8425V46.8425L11.96 11.96ZM42.0975 10.265C39.85 8.02501 37.575 5.81502 35.2475 3.65752C34.4925 2.99002 33.83 2.48752 32.5725 2.50252C31.6475 2.53752 30.3975 2.99002 30.3975 2.99002L15.8525 10.2625L42.0975 10.265Z" fill="white" fill-opacity="0.5"/>
</g>
<defs>
<clipPath id="clip0_29_548">
<rect width="60" height="60" fill="white"/>
</clipPath>
</defs>
</svg>
