<svg width="37" height="48" viewBox="0 0 37 48" fill="none" xmlns="http://www.w3.org/2000/svg">
<path d="M17.0352 0.808594H24.6914V35.9453C20.7266 36.6289 17.8555 37.0391 14.7109 37.0391C5.27734 37.0391 0.492188 32.8008 0.492188 24.7344C0.492188 16.9414 5.55078 12.0195 13.6172 12.0195C14.8477 12.0195 15.8047 12.0195 17.0352 12.293V0.808594ZM17.0352 18.4453C16.0781 18.1719 15.3945 18.0352 14.4375 18.0352C10.4727 18.0352 8.28516 20.4961 8.28516 24.5977C8.28516 28.6992 10.3359 30.8867 14.3008 30.8867C15.1211 30.8867 15.8047 30.8867 17.0352 30.6133V18.4453ZM36.8594 12.4297V30.0664C36.8594 36.2188 36.4492 39.0898 35.082 41.5508C33.8516 44.0117 32.2109 45.5156 28.793 47.293L21.6836 43.875C25.1016 42.3711 26.7422 40.8672 27.6992 38.8164C28.793 36.6289 29.2031 34.168 29.2031 27.4688V12.4297H36.8594ZM29.2031 0.808594H36.8594V8.60156H29.2031V0.808594Z" fill="white" fill-opacity="0.5"/>
</svg>
