<svg width="80" height="80" viewBox="0 0 80 80" fill="none" xmlns="http://www.w3.org/2000/svg">
<g clip-path="url(#clip0_29_538)">
<path d="M35.7883 37.4659V30.0329H44.1012V37.4659H35.7883ZM44.1012 11.7647V19.4518H35.7883V11.7647H44.1012ZM53.9295 30.0471V37.48H45.6165V30.0471H53.9295ZM34.2754 20.9765V28.5365H25.9624V20.9765H34.2754ZM44.1036 20.9765V28.5365H35.7883V20.9765H44.1036ZM79.0071 33.56L80.6448 34.6941L79.5107 36.8447C78.3248 39.1929 76.2706 40.96 73.7836 41.7412L73.7154 41.76C72.1577 42.2424 70.3671 42.5224 68.513 42.5224C68.3483 42.5224 68.1859 42.52 68.0236 42.5153H68.0471C64.8471 50.5365 59.3601 57.08 52.3953 61.5082L52.2354 61.6047C45.3248 65.7718 36.9789 68.2376 28.0565 68.2376C27.5859 68.2376 27.1201 68.2306 26.6518 68.2165L26.7201 68.2188C17.4808 68.2188 10.5091 65.4471 5.80476 59.9035C3.553 57.1153 1.85182 53.7788 0.929467 50.1341L0.89182 49.9553C0.329467 47.9224 0.00476074 45.5859 0.00476074 43.1765C0.00476074 41.88 0.0988784 40.6024 0.280055 39.3553L0.263584 39.4965H55.073C55.1765 39.4988 55.2989 39.5012 55.4212 39.5012C57.5036 39.5012 59.4659 38.9859 61.1883 38.0776L61.1201 38.1106C60.1412 36.5365 59.5601 34.6259 59.5601 32.5812C59.5601 32.2212 59.5789 31.8659 59.6142 31.5153L59.6095 31.56C59.7248 29.1224 60.4589 26.8753 61.6589 24.9506L61.6259 25.0094L62.8871 23.2447L64.6518 24.5059C67.3318 26.3082 69.2259 29.1082 69.8024 32.3624L69.8142 32.4353C70.7318 32.2894 71.793 32.2071 72.8706 32.2071C73.593 32.2071 74.3059 32.2447 75.0095 32.3176L74.9224 32.3106C76.4448 32.3671 77.8518 32.8282 79.0471 33.5859L79.0142 33.5647L79.0071 33.56ZM14.6236 30.0329V37.4659H6.30829V30.0329H14.6236ZM24.4518 30.0329V37.4659H16.1412V30.0329H24.4518ZM34.2801 30.0329V37.4659H25.9624V30.0329H34.2801ZM24.4495 20.9624V28.5224H16.1412V20.9624H24.4495Z" fill="white" fill-opacity="0.5"/>
</g>
<defs>
<clipPath id="clip0_29_538">
<rect width="80" height="80" fill="white"/>
</clipPath>
</defs>
</svg>
