<svg width="72" height="50" viewBox="0 0 72 50" fill="none" xmlns="http://www.w3.org/2000/svg">
<rect width="72" height="50" fill="#BE3144"/>
<path d="M16.1963 11.3422H21.5469L31.2389 38H26.3072L24.5935 33.2778H13.1687L11.455 38H6.5233L16.1963 11.3422ZM14.8634 28.6317H22.8798L18.8621 17.6449L14.8634 28.6317ZM44.5636 18.4255C46.417 18.4255 48.1053 18.8762 49.6286 19.7775C51.1519 20.6788 52.3642 21.8911 53.2655 23.4144C54.1668 24.925 54.6175 26.6006 54.6175 28.4413C54.6175 29.8249 54.3572 31.1261 53.8368 32.3447C53.3163 33.5634 52.5927 34.636 51.6661 35.5627C50.7521 36.4767 49.6858 37.1939 48.4671 37.7144C47.2612 38.2348 45.96 38.4951 44.5636 38.4951C43.3704 38.4951 42.3104 38.2285 41.3838 37.6953C40.4698 37.1495 39.7018 36.445 39.0798 35.5818V38H34.4337V9.43805H39.0798V21.3389C39.7018 20.4757 40.4698 19.7775 41.3838 19.2443C42.3104 18.6985 43.3704 18.4255 44.5636 18.4255ZM44.5065 34.0013C45.4967 34.0013 46.3916 33.7538 47.1913 33.2587C48.0038 32.7509 48.6512 32.0782 49.1336 31.2403C49.6159 30.4025 49.8571 29.4695 49.8571 28.4413C49.8571 27.4257 49.6159 26.4991 49.1336 25.6612C48.6512 24.8107 48.0038 24.1379 47.1913 23.6429C46.3789 23.1478 45.484 22.9003 44.5065 22.9003C43.5418 22.9003 42.6786 23.1541 41.9169 23.6619C41.1553 24.157 40.5586 24.8298 40.127 25.6803C39.6954 26.5181 39.4796 27.4384 39.4796 28.4413C39.4796 29.4695 39.6954 30.4089 40.127 31.2594C40.5586 32.0972 41.1553 32.7636 41.9169 33.2587C42.6786 33.7538 43.5418 34.0013 44.5065 34.0013Z" fill="white"/>
<ellipse cx="62.4216" cy="33.5002" rx="5.05785" ry="5.1" fill="white"/>
</svg>
