<svg width="60" height="60" viewBox="0 0 60 60" fill="none" xmlns="http://www.w3.org/2000/svg">
<path fill-rule="evenodd" clip-rule="evenodd" d="M60 0H0V60H60V0ZM24.3076 52H19.294V32.1776H12.1055V28.044H31.496V32.1776H24.3076V52ZM53.1572 44.8612C53.1572 49.6092 49.4716 52.6144 43.4952 52.6144C37.7676 52.6144 34.1484 49.8752 33.8664 45.6248L33.8496 45.3592H38.6808L38.6972 45.5252C38.88 47.3184 40.8224 48.5304 43.628 48.5304C46.3008 48.5304 48.1436 47.252 48.1436 45.4092V45.3924C48.1436 43.8156 46.9648 42.9356 43.9932 42.3212L41.4696 41.8068C36.4892 40.794 34.3476 38.4696 34.3476 34.834V34.8172C34.3476 30.368 38.166 27.4296 43.4784 27.4296C49.0732 27.4296 52.3604 30.3848 52.6756 34.3856L52.6924 34.6016H47.9776L47.9444 34.4024C47.662 32.6924 46.002 31.4972 43.4784 31.4972C41.0048 31.5136 39.3612 32.6424 39.3612 34.4356V34.452C39.3612 36.0128 40.5236 36.9424 43.3456 37.5236L45.8856 38.038C50.9492 39.084 53.1572 41.1092 53.1572 44.8448V44.8612Z" fill="white" fill-opacity="0.5"/>
</svg>
